# xmcd CD database file
#
# Track frame offsets:
#	150
#	12932
#	24907
#	37740
#	49370
#	61587
#	75632
#	87800
#	100935
#	111205
#	122447
#	129577
#	137317
#	146215
#	155015
#	166725
#	178632
#	191015
#	200422
#	210362
#
# Disc length: 2954 seconds
#
# Revision: 0
# Processed by: cddbd v1.5.1PL0 Copyright (c) Steve Scherf et al.
# Submitted via: CDex 1.51
#
DISCID=fd0b8814
DTITLE=Slime and slam - Anthologie  cabu vol.1
DYEAR=1999
DGENRE=Jazz
TTITLE0=The flat foot boogie
TTITLE1=Chinatown, my chinatown
TTITLE2=That's what you call romance
TTITLE3=Ti-pi-tin
TTITLE4=8,9 and 10
TTITLE5=Dancing on the beach
TTITLE6=Oh lady be good
TTITLE7=Ferdinand the bull
TTITLE8=Look-a there
TTITLE9=Humpy dumpty
TTITLE10=Chinatown 2
TTITLE11=Darl eyes
TTITLE12=The flat floot boogie 2
TTITLE13=Bei mir bist du schoen
TTITLE14=Jump session
TTITLE15=Laughin' in rythm
TTITLE16=Vol vist du gaily star
TTITLE17=Dopey Joe
TTITLE18=Sweet Sofronia
TTITLE19=I'm getting Kinda Chilly
EXTD=YEAR: 1999
EXTT0=
EXTT1=
EXTT2=
EXTT3=
EXTT4=
EXTT5=
EXTT6=
EXTT7=
EXTT8=
EXTT9=
EXTT10=
EXTT11=
EXTT12=
EXTT13=
EXTT14=
EXTT15=
EXTT16=
EXTT17=
EXTT18=
EXTT19=
PLAYORDER=
